<?xml version="1.0" standalone="no"?>
<!DOCTYPE svg PUBLIC "-//W3C//DTD SVG 20010904//EN"
 "http://www.w3.org/TR/2001/REC-SVG-20010904/DTD/svg10.dtd">
<svg version="1.0" xmlns="http://www.w3.org/2000/svg"
 width="300.000000pt" height="300.000000pt" viewBox="0 0 300.000000 300.000000"
 preserveAspectRatio="xMidYMid meet">
<metadata>
Created by potrace 1.11, written by Peter Selinger 2001-2013
</metadata>
<g transform="translate(0.000000,300.000000) scale(0.100000,-0.100000)"
fill="#000000" stroke="none">
<path d="M0 1500 l0 -1500 1500 0 1500 0 0 1500 0 1500 -1500 0 -1500 0 0
-1500z m742 748 c9 -7 126 -319 261 -693 134 -373 249 -681 254 -682 5 -2 119
302 252 674 134 373 250 686 259 696 12 14 32 17 114 17 l98 0 0 -760 0 -760
-60 0 -60 0 0 705 c0 412 -4 705 -9 705 -5 0 -13 -12 -19 -27 -49 -140 -475
-1301 -487 -1330 -9 -20 -21 -41 -28 -45 -19 -12 -112 -9 -129 5 -9 6 -128
320 -264 695 -137 376 -254 691 -261 700 -10 14 -12 -121 -13 -696 l0 -713
-57 3 -58 3 -3 745 c-1 410 0 751 3 758 3 8 32 12 98 12 59 0 99 -5 109 -12z
m1718 -748 l0 -760 -125 0 -125 0 0 760 0 760 125 0 125 0 0 -760z"/>
</g>
</svg>
