<svg width="101" height="32" viewBox="0 0 101 32" fill="none" xmlns="http://www.w3.org/2000/svg">
<path fill-rule="evenodd" clip-rule="evenodd" d="M9.34717 32H11.3888V19.3334H9.34717V32Z" fill="#111111"/>
<path fill-rule="evenodd" clip-rule="evenodd" d="M17.5142 31.8107H19.5984V23.8164L28.403 32V19.523H26.3194V27.3816L17.5142 19.3334V31.8107Z" fill="#111111"/>
<path fill-rule="evenodd" clip-rule="evenodd" d="M33.9519 28.7432C35.1316 29.6428 36.5437 30.162 38.0598 30.162C39.5344 30.162 40.567 29.6622 40.567 28.5636C40.567 27.6047 39.9136 27.2251 38.755 26.8055L36.8804 26.1662C35.153 25.5671 33.8472 24.6877 33.8472 22.6698C33.8472 20.5118 35.8268 19.3334 38.2076 19.3334C39.6608 19.3334 40.9883 19.693 42.0203 20.3323V22.4701C40.9462 21.6909 39.7665 21.1514 38.2497 21.1514C36.9436 21.1514 35.9742 21.6312 35.9742 22.6302C35.9742 23.5289 36.5855 23.8886 37.6602 24.2482L39.7451 24.9671C41.7678 25.6667 42.6944 26.7456 42.6944 28.5234C42.6944 30.7613 40.6937 32 38.0598 32C36.3327 32 34.858 31.5205 33.9519 30.9212V28.7432Z" fill="#111111"/>
<path fill-rule="evenodd" clip-rule="evenodd" d="M47.4585 32H49.5002V19.3334H47.4585V32Z" fill="#111111"/>
<path fill-rule="evenodd" clip-rule="evenodd" d="M61.0306 30.0819C63.6631 30.0819 65.0716 28.369 65.0716 25.6665C65.0716 22.9434 63.6631 21.2311 61.0306 21.2311H58.4285V30.0819H61.0306ZM56.3057 19.3334H61.1125C64.8067 19.3334 67.1946 21.8089 67.1946 25.6664C67.1946 29.5242 64.8067 32 61.1125 32H56.3057V19.3334Z" fill="#111111"/>
<path fill-rule="evenodd" clip-rule="evenodd" d="M79.4446 19.3334V21.231H74.0081V24.279H78.8818V26.1566H74.0081V30.0818H79.4446V32H71.9585V19.3334H79.4446Z" fill="#111111"/>
<path fill-rule="evenodd" clip-rule="evenodd" d="M86.9713 25.0682H89.3089C90.6906 25.0682 91.4719 24.3052 91.4719 23.129C91.4719 21.9534 90.6906 21.1901 89.3089 21.1901H86.9713V25.0682ZM86.9713 26.8629V32H84.8887V19.3334H89.3492C91.8927 19.3334 93.5345 20.6537 93.5345 23.1289C93.5345 25.2541 92.6187 26.4713 90.6762 26.7807L95.097 32H92.7337L88.4531 26.8629H86.9713Z" fill="#111111"/>
<path fill-rule="evenodd" clip-rule="evenodd" d="M91.6943 3.33655C91.6943 5.35397 93.0006 6.23358 94.7275 6.833L96.6025 7.47202C97.7607 7.89129 98.414 8.27183 98.414 9.23007C98.414 10.3289 97.3819 10.8285 95.9074 10.8285C94.3906 10.8285 92.9793 10.3092 91.7997 9.40993V11.5875C92.7056 12.187 94.1796 12.6667 95.9074 12.6667C98.5404 12.6667 100.542 11.4276 100.542 9.19017C100.542 7.41217 99.6146 6.33304 97.5924 5.63387L95.5073 4.91504C94.4328 4.55504 93.8219 4.19562 93.8219 3.29635C93.8219 2.29762 94.791 1.8182 96.0961 1.8182C97.6138 1.8182 98.793 2.35747 99.8675 3.13645V0.999027C98.8352 0.359415 97.5084 0 96.0549 0C93.6744 0 91.6943 1.17888 91.6943 3.33655" fill="#111111"/>
<path fill-rule="evenodd" clip-rule="evenodd" d="M65.1528 0V12.6667H72.6389V10.7504H67.2042V6.82065H72.0786V4.945H67.2042V1.89686H72.6389V0H65.1528Z" fill="#111111"/>
<path fill-rule="evenodd" clip-rule="evenodd" d="M36.0686 5.73488H38.5623C40.0361 5.73488 40.8693 4.97196 40.8693 3.79571C40.8693 2.62007 40.0361 1.85685 38.5623 1.85685H36.0686V5.73488ZM36.0686 7.52972V12.6667H33.8472V0H38.6053C41.3182 0 43.0696 1.32054 43.0696 3.79567C43.0696 5.92061 42.0926 7.13804 40.0203 7.44736L44.7361 12.6667H42.2155L37.6492 7.52972H36.0686Z" fill="#111111"/>
<path fill-rule="evenodd" clip-rule="evenodd" d="M51.6755 5.50819L56.8214 0H59.52L53.7257 6.0652L59.7083 12.6667H56.947L51.6755 6.86991V12.6667H49.5V0H51.6755V5.50819Z" fill="#111111"/>
<path fill-rule="evenodd" clip-rule="evenodd" d="M77.4028 0H88.2917V1.89834H83.9528V12.6667H81.7411V1.89834H77.4028V0Z" fill="#111111"/>
<path fill-rule="evenodd" clip-rule="evenodd" d="M21.1532 9.22572L23.2893 4.37384L25.4251 9.22572H21.1532ZM26.94 12.6667H29.0836L23.2989 0L17.5142 12.6667H19.6386L20.3513 11.0477H26.227L26.94 12.6667Z" fill="#111111"/>
<path fill-rule="evenodd" clip-rule="evenodd" d="M11.3248 5.46808V12.6667H13.4306V0L6.96528 6.75112L0.5 0V12.6667H2.60572V5.46808L6.96528 10.0194L11.3248 5.46808Z" fill="#111111"/>
</svg>
